<?xml version="1.0" standalone="no"?>
<!DOCTYPE svg PUBLIC "-//W3C//DTD SVG 20010904//EN"
 "http://www.w3.org/TR/2001/REC-SVG-20010904/DTD/svg10.dtd">
<svg version="1.0" xmlns="http://www.w3.org/2000/svg"
 width="150.000000pt" height="50.000000pt" viewBox="0 0 400.000000 269.000000"
 preserveAspectRatio="xMidYMid meet">
<metadata>
Created by potrace 1.16, written by Peter Selinger 2001-2019
</metadata>
<g transform="translate(0.000000,269.000000) scale(0.100000,-0.100000)"
fill="#000000" stroke="none">
<path d="M0 1345 l0 -1345 2000 0 2000 0 0 354 c0 400 7 371 -84 360 -116 -15
-152 -56 -150 -174 1 -64 18 -162 40 -233 3 -11 -37 16 -91 62 -120 99 -234
176 -374 253 l-106 58 70 0 c50 0 79 -5 100 -18 17 -10 51 -31 77 -46 l47 -27
24 43 c13 24 54 100 91 169 l66 127 139 -94 c77 -52 142 -94 145 -94 3 0 6
439 6 975 l0 975 -2000 0 -2000 0 0 -1345z m1704 1311 c38 -16 66 -50 66 -81
0 -27 292 -754 304 -757 11 -3 261 611 296 724 23 75 58 113 115 124 43 8 93
-1 123 -22 50 -35 51 -45 53 -456 l1 -383 -149 -77 -148 -77 -32 60 -31 60
109 55 109 54 -2 268 c-3 224 -5 267 -17 267 -10 0 -69 -135 -178 -402 -89
-222 -165 -413 -168 -426 l-6 -24 167 -12 c518 -37 962 -145 1341 -326 l132
-63 -81 -159 c-131 -256 -189 -363 -197 -363 -4 0 -29 14 -57 32 -169 108
-505 239 -749 292 -148 33 -299 55 -303 45 -2 -4 67 -181 152 -394 169 -418
176 -445 136 -510 -11 -18 -31 -40 -45 -49 -24 -16 -25 -15 -38 17 -8 18 -65
160 -128 316 -96 239 -118 285 -138 293 -14 5 -142 8 -290 6 l-266 -3 -130
-321 c-127 -316 -130 -322 -152 -311 -13 6 -33 26 -45 46 -41 66 -35 91 140
521 88 217 157 398 154 401 -10 10 -228 -18 -363 -45 -296 -62 -582 -170 -807
-307 -36 -22 -66 -38 -67 -37 -9 10 -275 500 -275 507 0 11 129 78 255 131
387 165 867 267 1343 286 89 4 162 9 162 10 0 10 -335 831 -343 842 -5 6 -13
12 -18 12 -5 0 -9 -121 -9 -268 l0 -268 88 -43 c134 -66 129 -58 92 -130 l-30
-61 -146 73 -145 74 1 388 c0 350 2 392 18 418 34 59 123 83 196 53z m-1290
-1896 c48 -90 89 -166 91 -168 2 -2 37 17 79 42 70 45 78 47 137 44 l62 -3
-84 -44 c-147 -76 -318 -194 -423 -291 l-49 -45 7 35 c33 167 38 216 27 266
-19 84 -68 115 -185 117 -52 1 -65 4 -52 12 9 5 81 53 159 106 78 53 143 96
143 95 1 -1 41 -75 88 -166z"/>
<path d="M2000 1319 c-30 -73 -56 -136 -58 -141 -2 -4 14 -8 36 -8 37 0 41 3
52 35 7 22 18 35 28 35 41 0 64 -14 77 -46 12 -30 18 -34 51 -34 43 0 45 -15
-23 160 -47 119 -51 125 -79 128 -29 3 -30 1 -84 -129z"/>
<path d="M1659 1411 c-16 -16 -29 -38 -29 -48 0 -23 26 -60 62 -91 47 -40 26
-78 -28 -53 -25 11 -26 11 -19 -21 10 -47 12 -48 59 -48 62 0 96 29 96 81 0
33 -7 46 -41 79 -46 45 -48 77 -4 66 21 -5 25 -3 25 17 0 55 -73 66 -121 18z"/>
<path d="M2260 1388 c0 -29 -5 -91 -10 -137 -5 -47 -9 -86 -7 -86 1 -1 21 -5
45 -9 38 -6 43 -4 42 11 -1 10 -2 35 -1 56 1 36 2 37 36 37 46 0 85 37 85 79
0 59 -64 100 -157 101 l-33 0 0 -52z"/>
<path d="M2496 1348 c-3 -40 -12 -102 -20 -138 -8 -36 -12 -67 -11 -68 2 -2
22 -6 44 -9 40 -5 41 -5 41 23 0 59 10 74 47 74 46 0 69 14 81 50 23 63 -16
110 -103 125 -22 4 -47 9 -56 11 -13 4 -17 -8 -23 -68z"/>
<path d="M1328 1383 l-78 -15 0 -35 c0 -31 2 -34 23 -27 49 16 51 14 72 -99
18 -99 22 -108 40 -103 11 3 31 6 44 6 18 0 22 4 16 18 -8 19 -44 180 -45 200
0 7 12 12 30 12 27 0 30 3 30 30 0 35 -9 36 -132 13z"/>
<path d="M1112 1332 l-93 -25 3 -31 c2 -17 8 -30 13 -29 6 1 22 4 36 8 26 6
27 4 48 -72 11 -44 21 -89 21 -101 0 -30 14 -35 61 -22 29 8 38 14 31 23 -8
10 -62 185 -62 201 0 3 14 6 31 6 28 0 30 2 27 32 -2 17 -7 32 -13 34 -5 1
-52 -10 -103 -24z"/>
<path d="M2738 1237 c-47 -67 -85 -124 -83 -125 2 -2 20 -7 39 -12 34 -7 38
-6 52 21 15 29 30 34 71 23 16 -4 23 -16 28 -44 6 -34 10 -39 42 -45 19 -3 36
-5 38 -3 6 7 -41 278 -50 287 -6 5 -19 11 -30 15 -17 5 -34 -14 -107 -117z"/>
<path d="M2995 1188 c-21 -62 -42 -117 -46 -123 -15 -16 -10 -22 31 -39 51
-20 50 -20 50 7 0 13 7 32 15 43 14 18 14 18 15 -4 0 -50 46 -102 90 -102 4 0
-1 27 -11 61 -10 33 -19 64 -19 68 0 4 13 12 30 18 70 26 57 118 -23 153 -95
42 -89 45 -132 -82z"/>
<path d="M858 1253 c-10 -2 -18 -5 -19 -6 -3 -10 -15 -294 -13 -299 2 -3 20
-1 39 5 32 9 35 14 35 48 0 34 3 38 37 50 35 11 38 10 59 -16 20 -26 24 -27
59 -15 l37 12 -24 27 c-14 14 -58 64 -98 111 -75 87 -82 91 -112 83z"/>
<path d="M3260 1153 c-13 -32 -38 -89 -56 -126 l-33 -68 22 -8 c12 -5 44 -19
71 -30 l49 -22 24 22 c29 28 29 39 1 39 -13 0 -33 3 -45 6 -19 5 -20 9 -11 35
10 28 11 29 33 15 21 -14 24 -13 45 9 l22 23 -31 16 c-35 19 -37 24 -17 51 14
19 15 19 34 2 19 -18 21 -18 41 0 12 9 21 21 21 25 0 7 -125 68 -140 68 -3 0
-17 -26 -30 -57z"/>
<path d="M664 1175 c-28 -12 -33 -20 -45 -79 -7 -36 -17 -66 -23 -66 -6 0 -34
13 -62 29 l-51 28 -44 -22 -43 -22 27 -14 c19 -10 40 -43 74 -114 26 -55 49
-102 50 -104 5 -7 75 29 71 37 -2 4 -18 35 -36 70 l-33 63 50 -26 c55 -27 51
-30 66 44 l7 34 28 -64 c16 -35 33 -65 39 -67 5 -2 23 4 39 12 l30 15 -41 78
c-22 42 -47 100 -56 129 l-16 53 -31 -14z"/>
<path d="M3435 1002 c-33 -64 -61 -120 -63 -124 -2 -4 26 -22 62 -40 l66 -32
27 26 26 27 -37 6 c-20 4 -39 11 -41 16 -6 9 32 89 71 151 13 21 24 40 24 43
0 2 -17 13 -38 24 l-38 19 -59 -116z"/>
<path d="M1915 1006 c-47 -113 -72 -182 -68 -188 2 -5 107 -8 233 -8 l228 0
-43 107 c-34 86 -48 109 -67 114 -12 4 -78 7 -146 8 l-123 1 -14 -34z"/>
</g>
</svg>
